<svg xmlns="http://www.w3.org/2000/svg" version="1.1" xmlns:xlink="http://www.w3.org/1999/xlink" xmlns:svgjs="http://svgjs.dev/svgjs" width="2000" height="368" viewBox="0 0 2000 368"><g transform="matrix(1,0,0,1,-1.2121212121212466,-0.5266845188501748)"><svg viewBox="0 0 396 73" data-background-color="#ffffff" preserveAspectRatio="xMidYMid meet" height="368" width="2000" xmlns="http://www.w3.org/2000/svg" xmlns:xlink="http://www.w3.org/1999/xlink"><g id="tight-bounds" transform="matrix(1,0,0,1,0.2400000000000091,0.10447817901103917)"><svg viewBox="0 0 395.52 72.79104364197791" height="72.79104364197791" width="395.52"><g><svg viewBox="0 0 569.0919437896896 104.73502355555556" height="72.79104364197791" width="395.52"><g transform="matrix(1,0,0,1,173.5719437896896,8.306400666666669)"><svg viewBox="0 0 395.52 88.12222222222222" height="88.12222222222222" width="395.52"><g id="textblocktransform"><svg viewBox="0 0 395.52 88.12222222222222" height="88.12222222222222" width="395.52" id="textblock"><g><svg viewBox="0 0 395.52 88.12222222222222" height="88.12222222222222" width="395.52"><g transform="matrix(1,0,0,1,0,0)"><svg width="395.52" viewBox="1.2 -37.9 172.79000000000002 38.5" height="88.12222222222222" data-palette-color="#38bdff"><path d="M9.75-28.9L9.75-28.9Q7.9-28.9 6.58-30.23 5.25-31.55 5.25-33.4L5.25-33.4Q5.25-35.3 6.58-36.6 7.9-37.9 9.75-37.9L9.75-37.9Q11.65-37.9 12.95-36.6 14.25-35.3 14.25-33.4L14.25-33.4Q14.25-31.55 12.95-30.23 11.65-28.9 9.75-28.9ZM13.55 0L5.9 0 5.9-19 1.2-19 1.2-24.8 13.55-24.8 13.55 0ZM27.9 0.6L27.9 0.6Q24.7 0.6 22.22-1 19.75-2.6 18.35-5.58 16.95-8.55 16.95-12.6L16.95-12.6Q16.95-16.65 18.35-19.53 19.75-22.4 22.22-23.95 24.7-25.5 27.9-25.5L27.9-25.5Q29.95-25.5 32.1-24.48 34.25-23.45 35.45-21.4L35.45-21.4 35.45-33.4 43.05-33.4 43.05-9.7Q43.05-7.85 43.22-5.3 43.4-2.75 43.9 0L43.9 0 36.65 0 35.65-3.35Q34.1-1.2 32.02-0.3 29.95 0.6 27.9 0.6ZM30.35-5.3L30.35-5.3Q32.55-5.3 34.17-6.95 35.8-8.6 35.8-12.45L35.8-12.45Q35.8-16.25 34.17-17.93 32.55-19.6 30.35-19.6L30.35-19.6Q28.1-19.6 26.47-17.8 24.85-16 24.85-12.6L24.85-12.6Q24.85-9.15 26.47-7.23 28.1-5.3 30.35-5.3ZM60.34 0.6L60.34 0.6Q56.34 0.6 53.27-0.98 50.2-2.55 48.47-5.5 46.75-8.45 46.75-12.55L46.75-12.55Q46.75-16.5 48.57-19.4 50.4-22.3 53.42-23.9 56.45-25.5 60.05-25.5L60.05-25.5Q64.15-25.5 67.07-23.58 70-21.65 71.5-18.28 73-14.9 72.75-10.5L72.75-10.5 54.4-10.5Q54.59-7.9 56.32-6.6 58.05-5.3 60.15-5.3L60.15-5.3Q61.9-5.3 63.17-5.83 64.45-6.35 65.15-7.15L65.15-7.15 71.2-4.95Q69.25-2.1 66.32-0.75 63.4 0.6 60.34 0.6ZM54.4-15L54.4-15 65.7-15Q65.65-17.4 64.05-18.63 62.45-19.85 60.25-19.85L60.25-19.85Q58.09-19.85 56.42-18.7 54.75-17.55 54.4-15ZM83.59 0.6L83.59 0.6Q81.24 0.6 79.29-0.3 77.34-1.2 76.19-2.83 75.04-4.45 75.04-6.7L75.04-6.7Q75.04-9.75 77.17-11.55 79.29-13.35 82.99-14.25 86.69-15.15 91.49-15.5L91.49-15.5Q91.49-18.15 90.64-19.25 89.79-20.35 87.34-20.35L87.34-20.35Q85.79-20.35 84.62-19.63 83.44-18.9 83.04-17.4L83.04-17.4 76.64-19.7Q77.89-22.2 80.82-23.85 83.74-25.5 87.99-25.5L87.99-25.5Q93.29-25.5 96.14-23.15 98.99-20.8 98.99-15.15L98.99-15.15 98.99-9.7Q98.99-8.1 99.09-6.25 99.19-4.4 99.39-2.75 99.59-1.1 99.84 0L99.84 0 92.79 0 91.89-3Q90.49-1.05 88.37-0.23 86.24 0.6 83.59 0.6ZM86.39-4.6L86.39-4.6Q88.64-4.6 90.14-5.8 91.64-7 91.64-10.4L91.64-10.4 91.64-11Q87.69-10.65 85.29-9.93 82.89-9.2 82.89-7.25L82.89-7.25Q82.89-6.05 83.89-5.33 84.89-4.6 86.39-4.6ZM111.24-28.9L111.24-28.9Q109.39-28.9 108.07-30.23 106.74-31.55 106.74-33.4L106.74-33.4Q106.74-35.3 108.07-36.6 109.39-37.9 111.24-37.9L111.24-37.9Q113.14-37.9 114.44-36.6 115.74-35.3 115.74-33.4L115.74-33.4Q115.74-31.55 114.44-30.23 113.14-28.9 111.24-28.9ZM115.04 0L107.39 0 107.39-19 102.69-19 102.69-24.8 115.04-24.8 115.04 0ZM127.34 0L119.74 0 119.74-24.8 126.39-24.8 127.34-21.5Q128.19-22.9 130.16-24.2 132.14-25.5 134.99-25.5L134.99-25.5Q139.79-25.5 141.56-22.83 143.34-20.15 143.34-15.1L143.34-15.1 143.34 0 135.74 0 135.74-13.2Q135.74-14.95 135.54-16.4 135.34-17.85 134.56-18.73 133.79-19.6 131.94-19.6L131.94-19.6Q129.54-19.6 128.44-17.88 127.34-16.15 127.34-12.75L127.34-12.75 127.34 0ZM155.94 0L148.34 0 148.34-33.4 155.94-33.4 155.94-15.4 164.24-24.8 173.24-24.8 163.53-14.45 173.99 0 164.99 0 158.53-9 155.94-6.25 155.94 0Z" opacity="1" transform="matrix(1,0,0,1,0,0)" fill="#38bdff" class="wordmark-text-0" data-fill-palette-color="primary" id="text-0"></path></svg></g></svg></g></svg></g></svg></g><g><svg viewBox="0 0 152.76840205635628 104.73502355555556" height="104.73502355555556" width="152.76840205635628"><g><svg xmlns="http://www.w3.org/2000/svg" xmlns:xlink="http://www.w3.org/1999/xlink" version="1.1" x="0" y="0" viewBox="4.999607886174791 19.149218167726463 89.99913471334263 61.701643581401626" enable-background="new 0 0 100 100" xml:space="preserve" height="104.73502355555556" width="152.76840205635628" class="icon-icon-0" data-fill-palette-color="accent" id="icon-0"><path d="M94.814 30.201c-0.449-1.229-1.813-1.941-3.125-2.637-1.176-0.624-17.58-6.948-17.58-6.948s-3.75-1.591-5.521-1.459c-1.836 0.138-3.576 0.339-7.576 2.583C51.666 26.973 33.731 37.165 18 46.938 12.378 50.434 6.778 60.111 6.778 60.111s-1.836 2.572-1.777 4.6c0.215 1.641 0.841 2.117 2.162 2.836 5.729 3.111 19.321 10.504 20.529 11.227 3.364 2.017 6.395 2.308 8.326 1.941 2.717-0.519 9.28-5.295 9.714-5.587 16.721-11.269 31.112-21.673 38.047-26.756 2.826-2.07 3.275-2.513 4.176-3.548 0.742-0.852 1.23-1.509 2.408-3.655 1.252-2.281 2.711-4.945 3.416-6.267C94.814 33.264 95.289 31.495 94.814 30.201zM89.307 34.557L48.799 61c0 0-0.455 0.295-0.672 0.517-0.227 0.231-0.521 0.655-0.521 0.655l-9.966 14.875c-0.2 0.297-0.527 0.459-0.862 0.459-0.198 0-0.397-0.058-0.574-0.176-0.476-0.316-0.603-0.961-0.284-1.438l9.495-14.125c0 0 0.275-0.369 0.143-0.582-0.054-0.117-0.291-0.206-0.291-0.206L20.586 50.648c-0.527-0.22-0.776-0.828-0.554-1.355 0.221-0.526 0.828-0.779 1.354-0.554l23.852 9.981c0 0 1.125 0.473 1.754 0.454 0.891-0.026 2.119-0.936 2.119-0.936l39.064-25.417c0.479-0.313 1.117-0.179 1.434 0.301C89.92 33.602 89.783 34.243 89.307 34.557z" fill="#ec2c40" data-fill-palette-color="accent"></path></svg></g></svg></g></svg></g><defs></defs></svg><rect width="395.52" height="72.79104364197791" fill="none" stroke="none" visibility="hidden"></rect></g></svg></g></svg>